P3
32 20
255
1 36 53
0 36 54
0 52 73
0 50 72
0 42 62
1 40 63
0 39 63
0 32 56
0 42 67
0 35 59
0 44 77
0 47 79
0 59 90
0 55 91
0 52 90
0 61 98
60 96 124
0 75 108
29 91 121
26 89 119
40 92 118
4 77 107
20 83 112
46 98 124
29 90 115
36 90 110
23 82 103
11 78 98
10 74 94
24 68 78
27 60 69
0 60 74
0 28 44
1 40 61
0 43 66
0 49 73
0 46 72
0 45 71
0 65 92
36 80 102
3 63 91
0 63 92
0 56 93
0 52 91
0 62 100
3 65 96
0 61 97
1 77 112
20 88 121
4 87 124
52 105 135
45 105 136
52 104 132
11 89 120
39 102 130
66 116 138
58 109 134
67 108 126
49 100 119
43 98 118
35 91 110
37 82 96
29 77 89
29 63 73
0 50 71
1 48 73
0 46 72
0 47 74
0 55 84
0 60 90
0 62 95
1 76 107
0 71 105
0 68 103
0 74 110
0 71 113
0 73 114
0 67 112
28 96 133
48 88 111
7 95 133
26 91 124
105 134 146
60 109 136
42 101 131
49 102 130
66 118 145
75 125 147
92 139 157
93 138 156
57 105 120
64 116 134
71 120 134
61 106 117
51 94 102
37 77 89
38 84 102
5 73 97
0 66 93
0 68 96
0 63 94
0 70 104
0 76 115
3 90 127
30 98 132
126 153 162
98 136 154
55 111 143
70 127 156
83 131 159
19 107 149
75 130 165
73 117 141
37 85 112
64 123 153
76 119 139
63 112 140
82 127 150
54 107 132
91 140 162
94 141 163
114 157 171
123 162 172
90 133 143
98 141 150
76 117 127
67 108 118
53 92 100
57 93 106
42 89 109
22 90 116
41 92 113
38 90 114
44 93 117
34 90 118
29 103 137
48 109 138
82 133 163
73 132 157
97 140 167
145 169 179
30 114 154
77 130 162
89 138 166
79 132 162
134 161 175
79 103 119
51 99 123
88 138 162
58 112 139
54 106 132
94 136 154
71 121 141
163 190 192
169 193 195
146 177 183
119 161 169
102 145 151
86 124 133
78 114 122
23 83 102
38 98 115
77 121 132
119 142 134
133 148 139
95 136 153
126 150 148
83 119 132
79 115 133
93 125 137
135 160 164
128 160 178
198 198 185
149 169 174
163 179 180
157 176 173
169 179 173
175 182 172
161 173 177
176 184 173
168 179 179
67 103 119
69 109 124
81 122 136
128 155 154
219 222 210
191 203 192
177 193 182
169 186 171
139 166 156
117 147 139
78 112 114
102 120 99
96 113 96
125 132 102
127 144 117
175 168 126
156 167 145
203 186 138
195 186 150
200 187 147
194 181 136
144 143 115
207 193 153
223 209 178
179 187 176
193 194 180
202 198 178
207 200 181
222 211 187
229 213 182
195 186 148
217 205 176
201 195 166
135 141 114
200 198 164
212 208 179
195 200 174
193 198 168
197 195 155
196 192 143
170 171 130
141 152 119
99 126 105
134 143 116
143 149 111
153 153 111
176 165 111
166 166 122
168 169 133
170 170 134
189 182 136
198 188 144
168 177 147
185 182 150
196 189 151
217 190 129
199 181 131
241 213 168
232 207 160
243 214 165
240 214 166
232 206 155
239 211 158
245 217 172
232 210 165
207 198 153
179 185 154
190 187 145
180 180 137
183 168 100
203 180 102
204 175 92
181 159 81
134 127 74
110 105 66
93 106 109
92 105 105
104 109 105
99 104 90
102 106 98
150 134 101
197 163 104
231 200 141
233 207 155
229 205 153
226 200 143
227 199 138
227 196 132
227 193 124
224 189 111
230 189 102
243 198 115
252 209 128
254 206 129
253 219 150
252 210 134
231 191 107
237 195 106
229 187 96
235 191 97
201 159 54
241 185 62
221 168 42
216 164 37
210 162 46
160 127 46
119 100 41
226 177 100
244 192 109
213 169 99
203 170 113
198 164 127
188 159 121
191 161 121
198 166 128
198 163 115
240 188 115
252 206 133
251 200 121
251 207 134
247 209 134
250 205 126
252 205 121
253 209 123
253 225 149
254 240 205
253 228 143
194 141 50
254 213 114
253 204 95
253 194 77
244 185 58
244 185 46
254 183 14
198 142 31
172 128 29
148 111 30
122 94 31
105 82 31
47 52 41
35 38 28
35 44 32
31 42 32
27 36 34
35 45 35
41 44 34
43 42 33
52 47 33
61 52 33
69 56 33
75 58 41
83 66 41
100 77 47
247 191 76
254 211 114
253 214 119
253 216 112
253 241 201
252 190 17
233 160 30
235 158 40
243 167 32
199 138 49
215 148 43
204 141 36
191 133 37
177 125 38
158 111 33
143 104 35
127 94 33
107 78 34
65 52 20
60 49 23
73 57 24
91 68 26
98 71 28
96 69 24
99 70 14
101 72 13
99 73 27
76 60 24
62 46 26
67 52 29
94 68 39
86 60 37
94 68 40
135 93 54
119 70 23
200 117 52
254 141 1
167 99 39
81 49 14
104 74 40
78 58 30
72 54 30
69 50 25
64 45 22
61 44 18
66 47 17
46 31 11
46 32 12
46 30 13
45 31 14
64 54 33
66 53 34
85 67 37
82 65 32
89 66 34
104 75 45
130 93 49
122 83 38
110 73 34
93 59 25
101 64 30
132 84 43
132 82 42
115 70 32
129 79 34
191 123 54
151 80 12
254 142 1
252 199 0
242 126 1
119 73 26
202 126 41
185 118 40
145 94 38
177 113 37
200 127 32
198 126 30
178 118 33
159 106 36
130 89 29
103 70 25
62 44 21
24 23 15
27 22 16
27 22 16
26 22 15
25 20 14
29 22 16
28 23 16
31 23 16
37 27 17
33 23 13
33 21 14
72 49 29
57 40 21
89 61 30
158 109 52
207 140 44
222 144 31
254 172 1
252 185 1
254 174 1
203 131 35
190 127 44
181 122 43
184 124 43
185 127 40
138 99 39
116 85 38
109 80 38
99 73 33
90 68 31
78 61 29
68 53 36
83 67 41
79 64 45
77 65 47
70 59 47
65 57 46
72 61 46
76 64 48
90 72 52
92 74 54
137 105 59
133 100 56
147 115 60
155 120 62
145 114 60
149 116 57
192 142 61
195 142 54
208 148 54
228 162 48
207 143 42
119 87 38
191 138 49
187 137 52
177 131 53
174 128 50
161 122 48
166 123 45
135 100 40
97 73 37
73 62 36
63 57 38
52 52 42
24 28 31
27 33 32
30 38 36
37 38 39
54 54 47
53 53 46
72 65 53
96 85 65
95 87 67
100 90 67
106 94 68
135 114 74
120 102 71
125 106 71
100 89 64
106 92 60
111 93 58
124 100 56
132 104 58
137 109 58
145 116 61
102 86 56
112 94 58
104 91 59
88 83 60
100 89 60
98 89 61
93 84 55
84 78 55
74 69 50
61 63 51
46 55 49
27 43 50
34 45 50
44 53 56
43 52 55
41 53 56
41 54 60
44 58 62
52 61 64
45 59 64
42 57 64
53 65 69
54 66 67
58 68 65
63 64 59
89 85 72
85 85 72
80 79 67
92 87 67
83 80 66
91 85 66
97 92 69
91 87 69
71 76 68
52 66 68
50 63 68
45 59 67
38 57 63
41 54 55
49 61 60
45 60 61
41 56 59
26 41 48
18 32 42
28 36 45
23 36 45
14 33 43
15 35 45
19 38 51
20 39 48
20 38 51
17 39 52
33 49 56
33 43 49
28 37 45
31 46 55
30 50 64
32 52 61
36 51 61
42 55 64
35 49 58
52 61 70
48 57 65
45 54 54
44 57 60
44 53 59
41 52 55
37 57 65
45 64 72
33 54 61
31 53 61
30 53 60
37 56 64
31 50 60
23 43 53
6 20 30
8 22 31
7 24 35
7 25 34
13 30 38
14 30 37
17 30 38
19 28 37
14 24 32
14 23 32
20 29 38
24 37 46
14 32 46
15 37 50
17 37 52
27 41 52
28 41 50
30 44 53
28 40 48
29 42 50
27 39 47
25 40 50
19 33 42
13 27 36
11 25 34
16 34 43
32 57 69
22 46 54
24 46 59
22 47 59
22 48 59
16 43 55
10 20 27
9 18 27
12 20 29
10 19 28
11 20 28
7 15 23
7 16 25
10 16 22
10 18 24
14 27 35
19 31 39
18 31 40
15 28 37
11 24 33
18 31 40
15 28 37
14 27 36
17 30 38
16 30 39
18 32 43
18 27 36
12 23 32
7 20 28
6 19 27
8 21 30
13 26 35
11 26 34
22 41 53
18 40 53
17 39 52
15 37 50
0 16 34
