P3
64 40
255
8 46 60
4 47 63
1 48 67
1 35 54
1 31 48
0 42 62
0 48 69
1 44 63
0 42 64
0 43 64
1 44 66
0 40 60
1 46 68
0 35 58
0 38 61
0 44 68
0 40 63
1 52 78
0 37 62
0 35 59
0 35 60
0 47 76
0 50 75
0 37 66
0 53 80
1 51 80
0 46 76
0 45 78
0 42 76
1 59 91
0 46 79
0 51 86
0 61 97
0 58 95
0 65 100
37 86 114
16 76 108
34 86 116
37 90 118
36 91 117
38 87 116
23 79 109
0 73 100
20 76 104
3 74 104
22 82 107
35 90 112
38 93 117
38 90 113
39 89 108
37 84 104
28 84 102
16 79 101
4 78 98
1 73 96
0 69 90
0 70 90
3 69 90
18 71 88
14 64 77
25 53 64
21 53 64
26 52 62
0 40 65
2 46 66
1 36 53
1 29 43
0 36 54
0 45 65
0 52 73
0 40 60
0 50 72
0 57 76
0 42 62
3 60 81
1 40 63
0 42 64
0 39 63
0 33 57
0 32 56
1 36 60
0 42 67
0 36 61
0 35 59
1 36 65
0 44 77
0 60 90
0 47 79
0 52 86
0 59 90
0 51 86
0 55 91
1 44 80
0 52 90
0 63 98
0 61 98
0 60 97
60 96 124
1 75 108
0 75 108
31 87 118
29 91 121
46 101 128
26 89 119
15 86 116
40 92 118
24 82 108
4 77 107
36 87 113
20 83 112
29 92 117
46 98 124
44 97 121
29 90 115
46 95 115
36 90 110
30 85 108
23 82 103
17 75 94
11 78 98
12 75 94
10 74 94
25 72 86
24 68 78
24 60 70
27 60 69
26 61 71
0 60 74
1 44 60
0 34 53
0 38 58
0 40 60
0 46 68
0 45 65
1 45 66
0 59 80
0 52 76
1 50 75
8 63 85
1 39 60
0 42 63
0 51 73
0 46 70
0 44 69
0 42 67
1 48 79
0 44 72
1 48 79
1 47 80
0 44 79
0 43 79
0 54 93
1 67 100
6 74 107
0 62 97
0 52 86
0 55 93
0 60 89
0 62 99
0 72 104
0 73 108
5 82 116
0 79 116
0 80 117
32 92 120
38 91 119
40 99 127
34 93 122
32 94 124
24 89 122
12 85 117
48 95 122
23 84 113
36 94 120
50 100 125
57 105 131
60 110 131
41 99 124
38 97 121
52 100 118
36 92 111
41 92 112
35 91 109
29 88 107
20 84 103
17 82 100
28 79 96
27 75 87
21 72 90
21 70 85
27 70 79
24 65 72
0 31 50
0 28 44
1 34 52
1 40 61
0 38 58
0 43 66
0 47 68
0 49 73
0 46 69
0 46 72
0 43 67
0 45 71
15 71 94
0 65 92
1 63 88
36 80 102
36 86 111
3 63 91
0 60 91
0 63 92
0 60 91
0 56 93
0 50 88
0 52 91
0 64 101
0 62 100
43 94 125
3 65 96
1 61 93
0 61 97
0 69 103
1 77 112
1 76 114
20 88 121
28 86 117
4 87 124
32 95 126
52 105 135
58 114 142
45 105 136
42 101 131
52 104 132
56 100 126
11 89 120
38 97 127
39 102 130
55 109 136
66 116 138
60 116 137
58 109 134
53 110 133
67 108 126
51 100 119
49 100 119
51 101 120
43 98 118
41 97 116
35 91 110
39 88 103
37 82 96
32 76 89
29 77 89
31 72 81
29 63 73
0 42 63
0 42 64
0 41 63
0 40 63
0 36 59
0 39 65
1 48 72
1 44 68
1 47 73
0 56 83
0 49 77
0 54 82
0 56 83
0 50 80
1 65 96
0 48 81
0 53 84
0 58 91
0 59 96
0 62 100
0 72 105
0 73 111
0 67 104
0 73 113
0 74 113
0 67 109
0 57 102
0 65 108
36 79 106
40 87 117
24 75 103
2 70 103
26 88 122
17 94 130
22 93 127
75 116 137
40 103 137
58 114 143
75 119 142
48 104 132
43 105 138
39 97 126
35 101 130
50 100 125
45 95 120
69 124 149
67 122 145
63 119 144
73 124 145
70 118 143
69 122 143
75 125 144
72 116 133
65 114 133
62 113 130
63 112 131
53 109 126
57 105 122
47 102 118
46 94 112
43 87 100
45 86 94
33 77 86
34 70 78
0 50 70
0 50 71
0 47 70
1 48 73
0 45 68
0 46 72
0 49 75
0 47 74
0 44 71
0 55 84
1 57 87
0 60 90
0 60 91
0 62 95
0 67 100
1 76 107
0 72 105
0 71 105
0 67 104
0 68 103
16 88 120
0 74 110
0 64 107
0 71 113
1 73 114
0 73 114
0 71 114
0 67 112
0 73 113
28 96 133
9 92 128
48 88 111
101 135 148
7 95 133
23 90 124
26 91 124
55 113 145
105 134 146
78 129 155
60 109 136
55 108 136
42 101 131
56 107 133
49 102 130
39 99 125
66 118 145
55 112 137
75 125 147
78 128 150
92 139 157
92 138 157
93 138 156
92 136 150
57 105 120
73 121 140
64 116 134
49 99 115
71 120 134
68 111 121
61 106 117
56 98 111
51 94 102
44 84 95
37 77 89
10 64 84
13 67 88
0 58 80
0 58 83
0 56 81
0 52 77
0 50 77
0 55 81
1 55 85
0 55 86
0 57 88
0 62 98
0 67 102
1 68 103
0 79 112
0 76 110
11 85 116
15 87 119
16 86 119
24 92 124
34 95 126
0 79 117
0 74 114
25 95 129
0 77 115
0 75 121
14 100 140
21 101 142
0 95 137
58 113 146
43 108 143
24 105 146
81 125 151
60 116 142
41 112 146
44 109 144
53 112 141
77 131 163
58 108 132
56 113 138
83 126 146
62 111 137
62 110 138
50 100 130
47 94 120
47 100 126
47 102 127
85 130 153
59 112 136
98 142 161
103 146 165
107 149 165
98 143 161
101 140 152
69 109 122
66 118 133
81 129 142
80 129 141
72 119 133
69 112 126
58 102 111
59 101 111
51 91 99
49 85 94
18 73 92
38 84 102
33 86 105
5 73 97
0 66 91
0 66 93
0 62 90
0 68 96
1 67 97
0 63 94
0 67 101
0 70 104
0 74 106
0 76 115
0 80 117
3 90 127
17 92 127
30 98 132
82 126 149
126 153 162
97 137 155
98 136 154
74 119 146
55 111 143
55 112 145
70 127 156
64 119 150
83 131 159
14 102 145
19 107 149
53 115 151
75 130 165
72 125 156
73 117 141
78 116 140
37 85 112
90 146 177
64 123 153
82 139 166
76 119 139
67 118 145
63 112 140
58 115 144
82 127 150
63 112 138
54 107 132
41 96 121
91 140 162
58 110 134
94 141 163
113 156 173
114 157 171
116 158 172
123 162 172
106 144 154
90 133 143
96 139 148
98 141 150
89 133 147
76 117 127
68 107 117
67 108 118
60 98 107
53 92 100
16 72 92
2 63 91
18 78 102
63 109 126
26 83 106
35 94 116
3 75 100
14 82 111
20 76 103
22 79 106
0 77 109
1 75 105
0 75 108
0 75 109
0 81 119
0 86 123
0 86 128
0 96 141
84 132 159
81 134 160
125 161 174
170 185 186
129 161 172
95 137 160
39 112 149
79 131 162
0 87 138
54 120 157
53 116 152
57 122 158
58 122 159
64 126 163
62 128 162
81 134 164
110 145 164
78 114 132
43 84 107
51 114 141
75 133 160
91 128 145
85 135 161
96 140 161
58 115 141
61 114 142
79 131 157
60 114 137
79 128 151
61 111 135
64 113 138
82 134 154
135 174 186
133 169 181
148 178 187
152 182 188
144 176 183
125 162 170
113 156 164
109 150 158
94 136 148
87 131 143
75 114 123
70 112 121
62 100 108
62 98 106
55 91 105
57 93 106
53 96 113
42 89 109
37 88 111
22 90 116
54 104 124
41 92 113
40 91 114
38 90 114
36 89 114
44 93 117
32 87 114
34 90 118
32 95 124
29 103 137
44 105 139
48 109 138
40 108 143
82 133 163
44 112 148
73 132 157
28 108 147
97 140 167
36 112 151
145 169 179
78 130 158
30 114 154
74 130 164
77 130 162
73 131 163
89 138 166
82 132 161
79 132 162
143 169 180
134 161 175
181 188 186
79 103 119
68 97 116
51 99 123
68 117 141
88 138 162
69 118 143
58 112 139
61 115 142
54 106 132
82 129 151
94 136 154
91 130 152
71 121 141
123 160 171
163 190 192
172 194 195
169 193 195
163 191 194
146 177 183
136 171 178
119 161 169
111 151 159
102 145 151
85 131 136
86 124 133
66 103 111
78 114 122
87 118 119
82 112 120
81 118 120
90 122 124
75 113 124
72 110 120
76 114 125
116 138 145
67 117 140
113 146 153
114 144 145
78 115 134
72 117 138
74 121 144
64 107 130
71 112 137
67 109 132
70 117 140
70 127 154
90 130 150
128 162 172
185 194 184
179 189 179
199 201 189
139 163 171
89 138 163
20 108 151
26 112 152
58 124 160
98 140 162
108 151 174
135 165 178
143 165 172
148 167 174
125 149 160
144 170 181
169 187 192
173 187 185
147 165 168
90 119 132
71 104 120
94 125 136
69 116 139
65 111 132
67 115 136
57 106 128
94 136 153
61 109 131
124 156 166
128 160 168
121 156 163
156 180 177
180 196 193
184 201 197
171 193 191
158 184 183
149 179 179
144 174 176
128 164 167
121 155 158
114 151 152
97 134 140
91 128 133
92 127 131
29 88 98
23 83 102
68 108 119
38 98 115
54 104 123
77 121 132
72 117 134
119 142 134
134 153 142
133 148 139
112 144 150
95 136 153
119 149 159
126 150 148
91 124 136
83 119 132
87 120 136
79 115 133
84 120 134
93 125 137
118 145 149
135 160 164
175 189 186
128 160 178
178 190 186
198 198 185
191 193 182
149 169 174
132 159 170
163 179 180
188 190 180
157 176 173
177 191 191
169 179 173
170 181 173
175 182 172
150 165 163
161 173 177
160 178 180
176 184 173
170 187 185
168 179 179
78 110 125
67 103 119
72 109 125
69 109 124
81 121 136
81 122 136
107 142 148
128 155 154
191 200 189
219 222 210
193 204 192
191 203 192
188 199 187
177 193 182
173 189 175
169 186 171
154 176 165
139 166 156
137 162 152
117 147 139
96 129 124
78 112 114
65 102 105
54 94 105
61 107 114
41 98 116
42 101 121
46 107 122
69 119 133
68 123 137
106 141 140
122 148 141
129 152 141
147 163 152
151 165 149
178 179 156
106 147 161
173 177 153
198 193 161
134 147 138
105 127 131
96 121 127
105 125 128
127 142 134
138 149 140
163 175 166
169 184 182
126 162 176
137 167 178
167 182 183
156 177 181
179 189 184
203 202 186
200 199 182
192 193 175
207 199 177
212 202 180
208 198 172
191 184 160
188 185 166
180 178 154
192 188 165
184 181 152
176 181 162
154 162 151
156 167 158
111 140 136
86 124 132
72 112 124
96 136 141
104 140 142
170 184 166
202 206 185
210 211 191
192 201 182
191 200 180
199 204 181
195 199 175
191 195 168
182 187 160
174 183 153
169 179 146
157 168 142
124 147 126
94 126 118
93 122 119
117 123 93
102 120 99
92 120 101
96 113 96
109 122 101
125 132 102
154 148 107
127 144 117
143 152 132
175 168 126
158 161 137
156 167 145
172 175 145
203 186 138
206 192 147
195 186 150
211 195 148
200 187 147
211 195 149
194 181 136
169 158 119
144 143 115
178 170 132
207 193 153
221 204 168
223 209 178
200 196 174
179 187 176
190 193 182
193 194 180
196 197 178
202 198 178
199 196 177
207 200 181
209 202 182
222 211 187
225 213 189
229 213 182
210 193 152
195 186 148
212 203 176
217 205 176
206 195 164
201 195 166
203 199 171
135 141 114
148 153 123
200 198 164
211 212 189
212 208 179
192 194 165
195 200 174
182 183 154
193 198 168
192 195 161
197 195 155
207 199 155
196 192 143
183 179 134
170 171 130
147 152 114
141 152 119
125 141 115
99 126 105
114 134 110
120 136 109
127 137 112
141 141 104
134 141 110
134 143 114
139 149 116
135 148 122
138 152 127
137 155 131
158 161 132
180 176 132
172 173 135
157 166 144
157 169 145
162 172 148
151 169 151
162 173 157
144 169 161
144 168 164
145 169 162
159 173 158
196 184 147
177 163 124
174 162 118
183 171 132
170 179 160
192 194 173
186 189 168
204 197 168
207 195 165
205 194 161
212 197 165
211 198 165
207 195 162
207 199 170
216 201 169
225 209 174
221 205 170
227 211 175
231 214 177
227 211 173
222 207 171
217 207 172
210 201 171
185 191 169
164 182 168
150 178 170
153 180 169
211 207 177
213 207 174
204 201 165
183 170 119
140 146 105
196 187 134
210 196 138
196 182 123
186 175 115
184 174 113
174 162 104
131 127 86
130 132 91
128 135 96
103 114 86
112 125 101
134 143 116
137 148 113
143 149 111
146 149 111
153 153 111
175 163 111
176 165 111
165 161 116
166 166 122
175 170 127
168 169 133
165 168 133
170 170 134
186 178 134
189 182 136
190 184 140
198 188 144
182 182 148
168 177 147
182 183 150
185 182 150
191 185 151
196 189 151
214 197 151
217 190 129
198 175 115
199 181 131
229 203 145
241 213 168
229 203 158
232 207 160
239 212 164
243 214 165
249 221 177
240 214 166
232 205 154
232 206 155
236 209 159
239 211 158
243 216 167
245 217 172
237 212 166
232 210 165
222 205 159
207 198 153
189 188 153
179 185 154
185 185 147
190 187 145
185 184 139
180 180 137
177 178 130
183 168 100
201 180 111
203 180 102
206 178 97
204 175 92
199 171 87
181 159 81
150 130 76
134 127 74
122 116 72
110 105 66
72 90 94
79 99 99
81 100 98
88 100 91
101 105 88
126 112 82
137 120 82
169 149 97
173 168 113
191 176 118
213 187 124
206 184 123
205 186 125
204 186 127
197 184 131
195 183 135
198 184 136
195 186 136
210 191 141
206 191 142
206 192 143
207 192 145
215 195 146
215 195 145
217 197 144
217 195 140
194 182 133
186 178 130
220 188 117
199 180 124
221 191 126
247 213 156
249 214 159
252 218 161
253 220 165
253 223 169
251 216 155
247 213 151
247 213 149
253 226 176
254 225 175
253 227 179
253 222 170
242 210 151
225 199 138
222 195 130
215 191 127
208 187 124
201 183 121
195 182 121
211 187 120
215 188 111
219 189 104
207 176 90
207 174 82
210 175 77
212 172 69
206 165 59
191 154 57
181 148 59
169 140 59
158 131 58
131 112 55
116 102 55
94 106 105
93 106 109
93 105 106
92 105 105
100 110 107
104 109 105
98 103 100
99 104 90
96 103 96
102 106 98
114 116 98
150 134 101
186 161 111
197 163 104
229 191 119
231 200 141
232 204 149
233 207 155
223 202 153
229 205 153
226 203 148
226 200 143
220 196 137
227 199 138
227 198 134
227 196 132
236 204 146
227 193 124
224 191 120
224 189 111
220 185 103
230 189 102
229 190 104
243 198 115
250 199 107
252 209 128
253 209 127
254 206 129
253 216 143
253 219 150
253 218 148
252 210 134
233 193 111
231 191 107
239 196 112
237 195 106
243 194 98
229 187 96
220 186 101
235 191 97
248 202 105
201 159 54
209 163 48
241 185 62
230 174 47
221 168 42
220 165 35
216 164 37
213 161 41
210 162 46
193 151 47
160 127 46
135 108 43
119 100 41
139 129 106
135 131 105
128 127 104
127 125 107
121 123 108
116 119 106
118 118 102
124 120 105
133 122 105
137 126 108
147 130 107
156 138 112
157 141 115
155 142 114
167 150 120
181 157 120
190 162 113
235 190 121
246 212 161
247 214 161
248 216 162
254 222 167
253 226 177
253 229 183
253 234 191
254 235 196
253 233 191
253 222 166
252 226 173
253 224 165
253 226 160
254 222 153
252 217 139
253 208 124
253 209 123
254 211 129
253 222 149
243 190 73
239 192 90
253 198 88
250 190 71
240 180 62
252 198 92
253 212 126
253 213 122
252 209 113
250 198 97
253 197 92
254 201 94
255 198 86
253 198 76
254 199 72
244 182 41
236 174 21
244 180 26
234 168 16
207 149 30
177 133 35
168 127 39
165 125 40
149 115 37
135 106 34
125 101 34
117 93 31
215 170 102
226 177 100
236 184 107
244 192 109
244 192 108
213 169 99
194 160 105
203 170 113
199 164 115
198 164 127
201 166 124
188 159 121
189 161 122
191 161 121
195 166 124
198 166 128
210 178 124
198 163 115
192 157 108
240 188 115
248 200 131
252 206 133
222 170 91
251 200 121
250 206 134
251 207 134
251 209 136
247 209 134
250 211 141
250 205 126
251 205 123
252 205 121
253 209 123
253 209 123
253 222 143
253 225 149
254 224 154
254 240 205
254 243 211
253 228 143
229 164 49
194 141 50
251 197 69
254 213 114
253 201 88
253 204 95
252 199 88
253 194 77
250 189 58
244 185 58
249 188 54
244 185 46
255 192 39
254 183 14
213 155 17
198 142 31
181 131 34
172 128 29
160 121 28
148 111 30
135 102 30
122 94 31
112 87 30
105 82 31
37 43 36
43 59 43
33 49 39
40 52 41
31 49 39
38 49 43
39 49 46
31 41 34
109 94 72
32 45 36
48 60 44
107 96 66
196 165 137
205 168 126
204 169 112
216 174 119
208 167 106
211 166 103
204 159 105
196 156 100
187 146 97
182 143 91
183 143 93
194 148 97
183 141 91
196 147 91
211 155 85
241 180 89
242 182 88
252 204 110
254 209 127
253 204 110
253 196 97
253 188 83
253 221 140
252 231 169
253 221 139
252 218 120
253 199 72
254 214 108
253 208 95
247 179 59
252 189 60
254 194 65
253 184 53
247 180 51
236 171 51
231 170 50
237 171 39
238 171 39
213 152 37
203 145 33
184 135 36
179 130 35
179 131 34
170 126 34
164 119 33
150 109 29
147 109 25
141 103 28
132 98 24
123 93 27
116 86 30
108 81 33
38 39 35
47 52 41
42 45 36
35 38 28
39 41 32
35 44 32
37 46 35
31 42 32
31 39 34
27 36 34
37 44 34
35 45 35
35 42 34
41 44 34
39 41 33
43 42 33
49 46 35
52 47 33
59 53 31
61 52 33
70 56 35
69 56 33
73 55 31
75 58 41
77 62 37
83 66 41
92 77 43
100 77 47
111 83 48
247 191 76
254 205 99
254 211 114
254 214 119
253 214 119
253 216 118
253 216 112
252 223 135
253 241 201
251 218 96
252 190 17
249 175 3
233 160 30
228 153 40
235 158 40
252 168 31
243 167 32
236 165 33
199 138 49
208 143 45
215 148 43
209 144 40
204 141 36
197 136 33
191 133 37
185 130 37
177 125 38
167 118 34
158 111 33
152 107 36
143 104 35
136 97 35
127 94 33
119 85 38
107 78 34
59 48 30
70 68 27
54 45 23
53 47 20
48 43 23
55 49 22
50 45 25
46 42 26
51 46 33
60 53 36
49 47 32
51 47 31
57 49 32
56 46 34
49 45 27
65 50 31
55 46 31
56 45 32
68 52 32
58 47 30
63 48 32
61 48 29
66 49 33
65 49 32
69 53 30
71 54 37
76 58 37
83 64 39
94 71 45
113 84 51
135 96 54
254 194 77
253 192 74
254 196 73
253 201 78
254 203 65
254 210 65
246 211 101
212 109 4
233 162 30
159 88 11
206 141 13
186 114 12
253 160 16
240 155 35
243 157 35
240 155 39
240 156 33
239 155 34
237 153 31
232 150 27
229 148 19
223 144 19
220 143 16
217 141 19
211 138 23
204 134 27
202 132 28
203 136 37
196 129 40
153 103 34
100 69 28
41 29 15
26 23 13
57 48 21
65 52 20
68 54 21
60 49 23
75 58 24
73 57 24
74 58 23
91 68 26
95 71 27
98 71 28
95 68 24
96 69 24
95 67 21
99 70 14
92 65 17
101 72 13
100 72 17
99 73 27
89 67 27
76 60 24
62 47 26
62 46 26
68 53 28
67 52 29
83 60 36
94 68 39
74 54 30
86 60 37
92 64 38
94 68 40
110 76 38
135 93 54
135 86 40
119 70 23
160 103 57
200 117 52
236 132 41
254 141 1
189 90 1
167 99 39
100 57 10
81 49 14
79 51 20
104 74 40
89 64 33
78 58 30
81 58 28
72 54 30
75 55 29
69 50 25
65 47 22
64 45 22
63 45 18
61 44 18
66 47 19
66 47 17
62 45 19
46 31 11
53 34 13
46 32 12
41 28 12
46 30 13
33 23 9
45 31 14
181 146 90
188 151 96
183 154 97
187 160 102
195 170 112
200 172 113
203 172 112
207 172 108
203 167 93
200 158 78
198 153 67
191 147 61
203 151 64
203 148 56
191 136 44
191 132 40
192 131 45
179 128 43
170 119 48
143 100 31
126 87 29
124 86 31
145 102 48
169 115 58
161 112 55
171 116 56
199 136 67
166 113 55
162 111 56
165 109 51
195 129 58
193 122 48
187 112 36
187 105 21
204 108 1
244 118 0
251 134 1
253 142 1
236 122 0
184 106 19
169 104 33
190 111 28
176 112 38
164 108 39
183 123 52
227 145 55
236 149 53
232 143 52
228 142 52
228 142 48
226 140 43
218 134 36
218 135 36
214 132 33
210 131 32
200 125 32
194 121 33
188 120 32
180 115 30
168 106 30
158 99 27
131 82 24
122 77 23
116 76 23
65 54 34
64 54 33
57 48 31
66 53 34
72 60 32
85 67 37
80 63 32
82 65 32
77 61 31
89 66 34
98 72 35
104 75 45
109 79 39
130 93 49
114 78 42
122 83 38
95 64 28
110 73 34
109 72 32
93 59 25
88 56 24
101 64 30
93 59 29
132 84 43
99 61 29
132 82 42
130 79 39
115 70 32
122 75 34
129 79 34
149 88 33
191 123 54
184 109 35
151 80 12
229 130 34
254 142 1
254 149 0
252 199 0
251 125 0
242 126 1
159 91 25
119 73 26
155 96 29
202 126 41
187 120 41
185 118 40
162 105 38
145 94 38
166 107 41
177 113 37
190 121 35
200 127 32
194 122 30
198 126 30
192 123 33
178 118 33
165 108 35
159 106 36
137 93 33
130 89 29
111 76 25
103 70 25
89 61 24
62 44 21
36 30 22
34 28 21
32 29 19
35 30 21
30 26 19
29 24 19
32 27 21
37 28 22
42 31 24
42 33 22
45 33 22
50 37 22
49 36 21
42 30 20
46 33 20
45 32 19
43 30 18
59 39 24
51 34 18
57 38 19
54 35 19
36 23 14
43 28 14
52 33 18
66 42 19
65 40 18
67 41 19
53 34 14
63 39 17
84 51 19
160 103 31
234 153 39
237 152 36
232 147 26
246 150 2
253 162 0
253 179 0
251 215 57
194 93 2
236 148 3
235 142 4
83 49 10
225 140 29
229 145 28
220 141 36
215 138 38
197 131 42
192 129 43
188 126 43
183 122 42
169 117 39
160 110 40
149 104 38
143 99 39
135 95 35
130 91 37
123 87 35
117 82 35
112 79 34
107 77 32
100 74 30
99 70 32
89 65 31
80 61 31
22 22 13
24 23 15
28 21 15
27 22 16
25 21 14
27 22 16
20 19 15
26 22 15
28 23 16
25 20 14
32 24 18
29 22 16
30 22 16
28 23 16
26 21 15
31 23 16
33 21 16
37 27 17
44 29 16
33 23 13
39 26 14
33 21 14
31 22 12
72 49 29
56 37 21
57 40 21
72 51 25
89 61 30
125 89 45
158 109 52
193 128 45
207 140 44
207 138 40
222 144 31
241 154 4
254 172 1
253 189 1
252 185 1
253 160 2
254 174 1
232 148 14
203 131 35
198 133 41
190 127 44
175 119 43
181 122 43
178 121 43
184 124 43
196 130 36
185 127 40
171 118 38
138 99 39
118 86 39
116 85 38
113 83 37
109 80 38
102 75 34
99 73 33
94 69 33
90 68 31
85 65 32
78 61 29
74 58 33
68 53 36
44 35 24
51 44 22
51 41 25
31 28 16
28 25 18
25 22 16
66 51 33
101 83 53
85 68 44
39 33 23
45 36 27
80 65 44
105 86 61
98 78 54
96 76 52
105 85 59
107 83 58
102 78 55
93 73 54
88 70 52
89 71 47
92 72 49
98 75 48
98 76 51
115 87 54
127 95 52
172 128 64
177 133 63
181 133 60
185 134 57
181 130 51
172 121 47
174 121 47
182 125 41
233 159 33
234 161 34
235 162 33
252 175 35
231 160 36
216 149 40
215 148 43
196 136 47
205 144 40
196 137 43
218 149 38
182 130 48
166 120 47
169 125 48
164 120 46
164 121 48
155 116 47
160 120 47
149 110 38
118 87 34
106 78 34
108 80 36
100 75 34
93 71 33
82 67 33
78 62 36
70 59 33
67 56 37
62 53 36
57 51 36
104 81 43
83 67 41
81 64 46
79 64 45
73 62 43
77 65 47
72 61 44
70 59 47
69 58 47
65 57 46
64 54 41
72 61 46
75 64 47
76 64 48
77 65 48
90 72 52
83 66 52
92 74 54
110 86 54
137 105 59
146 109 59
133 100 56
147 112 61
147 115 60
153 118 61
155 120 62
150 115 61
145 114 60
147 113 59
149 116 57
155 120 58
192 142 61
197 145 58
195 142 54
202 146 50
208 148 54
184 131 49
228 162 48
224 159 41
207 143 42
131 93 39
119 87 38
169 121 45
191 138 49
195 142 50
187 137 52
180 134 52
177 131 53
175 130 51
174 128 50
155 116 48
161 122 48
162 122 47
166 123 45
144 108 43
135 100 40
119 89 39
97 73 37
81 66 36
73 62 36
68 58 38
63 57 38
58 53 42
52 52 42
38 39 37
42 42 38
38 40 38
41 42 38
40 40 37
40 41 37
41 42 37
45 45 40
46 46 39
47 47 41
55 49 43
48 48 41
52 49 42
58 52 44
64 54 45
79 67 49
96 77 53
119 94 59
126 102 61
133 105 65
148 117 66
155 121 66
165 129 69
178 140 73
181 142 73
175 137 71
188 144 70
165 130 68
176 136 69
180 138 70
187 141 67
182 138 65
163 125 58
153 117 58
145 112 58
156 119 58
174 129 59
151 111 49
131 99 40
179 130 53
154 117 50
141 106 52
126 99 50
145 111 53
159 120 55
158 122 54
152 114 50
131 104 55
131 104 56
144 115 55
140 110 55
146 114 54
136 110 51
119 95 45
106 85 44
122 96 48
113 90 47
105 85 44
101 84 45
87 73 46
80 70 46
69 64 45
60 60 46
52 54 46
24 30 32
24 28 31
27 33 32
27 33 32
28 34 34
30 38 36
30 36 36
37 38 39
42 43 41
54 54 47
52 53 44
53 53 46
57 57 47
72 65 53
92 81 62
96 85 65
97 87 66
95 87 67
101 90 67
100 90 67
96 87 68
106 94 68
107 97 69
135 114 74
129 108 70
120 102 71
131 110 71
125 106 71
102 90 64
100 89 64
105 89 61
106 92 60
106 91 60
111 93 58
121 99 59
124 100 56
132 105 56
132 104 58
125 100 57
137 109 58
147 118 62
145 116 61
128 104 59
102 86 56
99 86 58
112 94 58
103 90 59
104 91 59
98 87 59
88 83 60
97 86 62
100 89 60
84 77 52
98 89 61
98 87 57
93 84 55
90 82 54
84 78 55
78 74 53
74 69 50
68 65 49
61 63 51
61 64 53
46 55 49
17 26 31
19 26 31
24 33 35
26 33 36
28 36 38
42 47 46
41 49 48
43 49 48
37 42 43
63 64 56
67 68 60
69 70 60
69 69 61
63 68 64
68 69 64
66 68 66
64 69 66
66 68 63
71 73 64
68 68 61
71 76 71
74 77 70
78 80 71
76 79 70
80 81 70
79 80 70
67 69 65
66 70 65
77 76 63
84 78 61
79 79 65
100 91 67
106 94 68
108 93 64
105 90 61
111 96 62
116 100 65
129 108 68
105 91 63
115 98 62
126 108 68
129 109 66
134 114 70
120 105 69
99 91 66
89 85 64
73 75 64
73 74 64
72 75 64
70 75 65
68 75 64
62 72 65
65 74 66
66 73 64
69 75 65
63 69 61
58 68 59
61 67 57
60 67 58
59 67 57
55 64 55
49 60 54
43 52 51
37 46 50
23 36 44
27 43 50
30 43 52
34 45 50
38 48 53
44 53 56
45 55 55
43 52 55
43 53 56
41 53 56
40 53 60
41 54 60
43 58 62
44 58 62
49 60 65
52 61 64
51 60 66
45 59 64
46 59 66
42 57 64
43 57 66
53 65 69
58 71 73
54 66 67
58 65 65
58 68 65
70 70 60
63 64 59
54 62 65
89 85 72
74 75 67
85 85 72
89 84 72
80 79 67
91 86 68
92 87 67
86 81 65
83 80 66
75 74 65
91 85 66
102 91 68
97 92 69
100 93 72
91 87 69
93 91 72
71 76 68
60 70 69
52 66 68
54 65 67
50 63 68
46 62 66
45 59 67
40 59 65
38 57 63
40 57 63
41 54 55
46 59 59
49 61 60
46 62 60
45 60 61
42 58 59
41 56 59
34 49 50
26 41 48
20 36 44
24 38 47
25 39 47
26 39 47
26 40 49
22 40 48
23 41 49
24 43 50
23 43 50
22 42 51
25 44 52
27 46 52
29 47 55
31 50 56
31 49 59
29 47 55
30 48 58
30 49 57
26 46 58
27 47 60
32 49 62
31 50 61
41 55 63
46 56 60
43 53 55
33 42 49
43 54 59
49 61 66
52 65 71
68 73 72
50 58 66
47 57 66
52 61 64
55 64 63
49 59 62
48 55 62
45 55 63
51 58 61
56 63 66
45 53 58
57 66 65
66 70 69
62 71 68
62 71 72
57 68 70
51 65 68
43 59 66
37 54 65
29 49 61
25 48 61
24 47 60
35 57 66
38 59 66
35 55 64
38 56 62
25 40 47
33 52 58
41 60 66
41 61 67
34 53 59
32 49 57
32 52 59
28 49 56
22 41 48
14 30 39
18 32 42
20 34 43
28 36 45
26 36 43
23 36 45
20 35 43
14 33 43
14 34 43
15 35 45
16 35 46
19 38 51
21 39 49
20 39 48
19 37 51
20 38 51
18 39 52
17 39 52
17 38 50
33 49 56
32 46 54
33 43 49
29 39 48
28 37 45
29 44 50
31 46 55
26 45 58
30 50 64
31 49 64
32 52 61
35 50 59
36 51 61
38 54 62
42 55 64
40 54 62
35 49 58
49 60 69
52 61 70
50 63 69
48 57 65
52 60 62
45 54 54
47 55 58
44 57 60
44 55 64
44 53 59
38 52 60
41 52 55
36 52 62
37 57 65
44 63 70
45 64 72
39 58 65
33 54 61
34 54 64
31 53 61
30 50 57
30 53 60
35 56 62
37 56 64
32 53 61
31 50 60
25 48 55
23 43 53
9 23 32
10 24 33
11 25 34
13 28 36
13 28 37
12 31 38
18 33 42
12 31 38
16 33 41
19 33 42
21 36 44
29 43 50
29 41 49
21 36 45
30 43 50
30 38 47
34 42 47
22 39 46
26 39 48
20 29 36
21 30 38
26 34 44
28 39 48
35 44 51
32 46 57
31 48 56
19 41 54
18 40 54
25 44 58
25 44 58
27 45 59
28 46 60
29 47 61
27 46 60
31 49 61
32 50 60
40 54 65
46 59 68
43 53 58
33 44 52
31 46 53
38 52 59
37 49 58
35 50 58
31 47 56
32 46 55
35 48 53
13 26 34
17 30 40
17 30 38
26 44 51
33 55 63
28 50 58
23 42 51
24 43 52
23 43 51
27 50 58
29 52 59
29 50 62
29 52 59
28 51 59
26 49 57
25 48 59
25 47 60
5 19 28
6 20 30
7 21 29
8 22 31
7 22 30
7 24 35
10 25 35
7 25 34
8 27 36
13 30 38
9 25 35
14 30 37
8 26 36
17 30 38
18 31 40
19 28 37
14 23 32
14 24 32
13 24 32
14 23 32
21 30 37
20 29 38
18 30 39
24 37 46
18 36 48
14 32 46
14 34 48
15 37 50
17 37 52
17 37 52
21 40 54
27 41 52
29 42 51
28 41 50
32 45 54
30 44 53
32 45 54
28 40 48
27 40 48
29 42 50
22 35 43
27 39 47
25 39 48
25 40 50
18 31 40
19 33 42
12 25 33
13 27 36
11 25 34
11 25 34
13 26 35
16 34 43
22 46 57
32 57 69
26 48 58
22 46 54
22 45 58
24 46 59
24 46 59
22 47 59
23 46 59
22 48 59
21 43 57
16 43 55
7 19 27
5 19 28
5 19 28
6 20 29
8 21 29
10 23 31
12 24 32
11 24 32
15 27 35
10 24 33
9 23 33
16 29 37
20 29 39
16 25 34
11 20 29
11 20 29
10 19 28
9 19 28
11 20 29
9 23 31
12 25 33
16 30 39
15 32 42
20 33 43
8 27 40
7 26 40
13 31 44
22 35 44
21 33 42
20 34 43
20 33 43
22 37 48
23 37 49
24 37 47
23 40 51
22 36 45
21 34 43
17 31 39
15 29 38
20 35 43
16 30 39
18 35 45
17 33 41
18 33 42
11 22 31
8 20 29
10 23 31
10 23 32
9 22 31
9 23 32
10 24 33
14 28 38
13 30 38
20 42 50
28 48 58
19 40 50
20 42 55
21 42 51
18 43 54
19 41 54
16 43 54
19 41 54
15 39 51
1 28 48
10 19 28
10 20 27
12 21 29
9 18 27
9 19 26
12 20 29
10 19 28
10 19 28
10 21 30
11 20 28
10 18 29
7 15 23
6 15 24
7 16 25
8 17 26
10 16 22
8 16 23
10 18 24
11 23 31
14 27 35
17 30 38
19 31 39
26 37 45
18 31 40
20 33 42
15 28 37
10 24 33
11 24 33
16 29 38
18 31 40
14 26 35
15 28 37
18 32 41
14 27 36
17 31 40
17 30 38
17 30 39
16 30 39
18 32 41
18 32 43
18 32 40
18 27 36
13 24 33
12 23 32
11 22 31
7 20 28
7 20 29
6 19 27
7 20 28
8 21 30
8 21 30
13 26 35
12 26 35
11 26 34
17 35 45
22 41 53
18 38 48
18 40 53
17 39 52
17 39 52
13 37 50
15 37 50
5 35 47
0 16 34
