P3
16 10
255
1 40 61
0 49 73
0 45 71
36 80 102
0 63 92
0 52 91
3 65 96
1 77 112
4 87 124
45 105 136
11 89 120
66 116 138
67 108 126
43 98 118
37 82 96
29 63 73
5 73 97
0 68 96
0 70 104
3 90 127
126 153 162
55 111 143
83 131 159
75 130 165
37 85 112
76 119 139
82 127 150
91 140 162
114 157 171
90 133 143
76 117 127
53 92 100
38 98 115
119 142 134
95 136 153
83 119 132
93 125 137
128 160 178
149 169 174
157 176 173
175 182 172
176 184 173
67 103 119
81 122 136
219 222 210
177 193 182
139 166 156
78 112 114
143 149 111
176 165 111
168 169 133
189 182 136
168 177 147
196 189 151
199 181 131
232 207 160
240 214 166
239 211 158
232 210 165
179 185 154
180 180 137
203 180 102
181 159 81
110 105 66
244 192 109
203 170 113
188 159 121
198 166 128
240 188 115
251 200 121
247 209 134
252 205 121
253 225 149
253 228 143
254 213 114
253 194 77
244 185 46
198 142 31
148 111 30
105 82 31
60 49 23
91 68 26
96 69 24
101 72 13
76 60 24
67 52 29
86 60 37
135 93 54
200 117 52
167 99 39
104 74 40
72 54 30
64 45 22
66 47 17
46 32 12
45 31 14
27 22 16
26 22 15
29 22 16
31 23 16
33 23 13
72 49 29
89 61 30
207 140 44
254 172 1
254 174 1
190 127 44
184 124 43
138 99 39
109 80 38
90 68 31
68 53 36
27 33 32
37 38 39
53 53 46
96 85 65
100 90 67
135 114 74
125 106 71
106 92 60
124 100 56
137 109 58
102 86 56
104 91 59
100 89 60
93 84 55
74 69 50
46 55 49
28 36 45
14 33 43
19 38 51
20 38 51
33 49 56
28 37 45
30 50 64
36 51 61
35 49 58
48 57 65
44 57 60
41 52 55
45 64 72
31 53 61
37 56 64
23 43 53
9 18 27
10 19 28
7 15 23
10 16 22
14 27 35
18 31 40
11 24 33
15 28 37
17 30 38
18 32 43
12 23 32
6 19 27
13 26 35
22 41 53
17 39 52
0 16 34
