P3
2 1
255
15 28 37
0 16 34
