P3
4 2
255
198 166 128
252 205 121
253 194 77
105 82 31
10 16 22
15 28 37
6 19 27
0 16 34
