P3
8 5
255
0 68 96
3 90 127
55 111 143
75 130 165
76 119 139
91 140 162
90 133 143
53 92 100
176 165 111
189 182 136
196 189 151
232 207 160
239 211 158
179 185 154
203 180 102
110 105 66
91 68 26
101 72 13
67 52 29
135 93 54
167 99 39
72 54 30
66 47 17
45 31 14
37 38 39
96 85 65
135 114 74
106 92 60
137 109 58
104 91 59
93 84 55
46 55 49
10 19 28
10 16 22
18 31 40
15 28 37
18 32 43
6 19 27
22 41 53
0 16 34
